<?xml version="1.0" encoding="utf-8"?>
<!-- Generator: Adobe Illustrator 23.0.3, SVG Export Plug-In . SVG Version: 6.00 Build 0)  -->
<svg version="1.1" id="Layer_1" xmlns="http://www.w3.org/2000/svg" xmlns:xlink="http://www.w3.org/1999/xlink" x="0px" y="0px"
	 viewBox="0 0 363 177" style="enable-background:new 0 0 363 177;" xml:space="preserve">
<style type="text/css">
	.st0{fill:#EC6D12;}
	.st1{fill:#1948CC;}
	.st2{fill:none;stroke:#FFFFFF;stroke-width:1.1842;stroke-miterlimit:10;}
	.st3{fill:url(#XMLID_2_);}
	.st4{fill:url(#XMLID_3_);}
	.st5{fill:url(#XMLID_4_);}
	.st6{fill:url(#XMLID_5_);}
	.st7{fill:url(#XMLID_6_);}
	.st8{fill:url(#XMLID_7_);}
	.st9{fill:#FFFFFF;}
	.st10{fill:#F4D93B;}
	.st11{fill:#4CC3F2;}
</style>
<g>
	<g>
		<g>
			<g>
				<path class="st0" d="M184.1,61.7c7.2,0,11.3,2.5,11.3,8c0,3.1-1.4,4.9-3.5,6.3c2.8,1.4,4.4,3.5,4.4,7.3c0,4.8-3.3,8.7-11.3,8.7
					h-11.6V61.7H184.1z M180.8,73.2h3.1c2.9,0,4.3-0.9,4.3-2.7c0-1.8-0.9-2.9-4.9-2.9h-2.4V73.2z M180.8,85.9h3.5
					c3.3,0,4.8-1.1,4.8-3.3c0-2.5-1.7-3.3-5.4-3.3h-2.9V85.9z"/>
				<path class="st0" d="M216.5,92l-5.1-11.5h-3.8V92h-7.3V61.7h11.4c7,0,11.5,3.2,11.5,9.5c0,4-1.8,6.6-4.8,8l6.1,12.7H216.5z
					 M210.9,74.4c2.9,0,5.1-0.4,5.1-3.3c0-2.9-2.1-3.5-5.1-3.5h-3.3v6.7H210.9z"/>
				<path class="st0" d="M225.2,92l10.6-30.3h7L253.3,92h-7.8l-1.6-5.2h-9.4L233,92H225.2z M236.4,80.7h5.6l-2.8-9L236.4,80.7z"/>
				<rect x="256" y="61.7" class="st0" width="7.3" height="30.3"/>
				<polygon class="st0" points="292.9,61.7 292.9,92 287,92 275.8,75.2 275.8,92 269,92 269,61.7 274.8,61.7 286,78.7 286,61.7 
									"/>
				<path class="st0" d="M138.4,121.3l8.2-23.7h5.5l8.2,23.7h-6.1l-1.3-4h-7.3l-1.2,4H138.4z M147.2,112.5h4.4l-2.2-7L147.2,112.5z"
					/>
				<polygon class="st0" points="170.5,121.3 165.2,121.3 159.9,97.6 166.1,97.6 168.6,111.7 172.8,97.6 177.8,97.6 182.1,111.8 
					184.7,97.6 190.9,97.6 185.6,121.3 180.2,121.3 175.3,106 				"/>
				<path class="st0" d="M190.3,121.3l8.2-23.7h5.5l8.2,23.7h-6.1l-1.3-4h-7.3l-1.2,4H190.3z M199.1,112.5h4.4l-2.2-7L199.1,112.5z"
					/>
				<path class="st0" d="M226.6,121.3l-3.9-9h-3v9H214V97.6h8.9c5.5,0,9,2.5,9,7.4c0,3.1-1.4,5.2-3.8,6.3l4.7,10H226.6z
					 M222.3,107.6c2.3,0,3.9-0.3,3.9-2.5c0-2.3-1.6-2.7-3.9-2.7h-2.5v5.2H222.3z"/>
				<polygon class="st0" points="273.8,97.6 273.8,121.3 269.2,121.3 260.5,108.2 260.5,121.3 255.1,121.3 255.1,97.6 259.7,97.6 
					268.5,110.9 268.5,97.6 				"/>
				<polygon class="st0" points="292.9,97.6 292.9,102.3 283.6,102.3 283.6,106.7 291.9,106.7 291.9,111.4 283.6,111.4 283.6,116.5 
					292.9,116.5 292.9,121.3 277.9,121.3 277.9,97.6 				"/>
				<path class="st0" d="M308.2,104.2c-0.9-1.6-2.1-2.2-4.2-2.2c-1.9,0-2.7,0.9-2.7,2.1c0,1.4,1.2,2.2,4.2,3.1
					c5.2,1.5,7.1,3.4,7.1,7.4c0,4.3-2.9,7.1-8.3,7.1c-4.3,0-7.2-1.1-9.5-3.9l4.3-3c1.2,1.5,2.6,2.1,4.7,2.1c2.2,0,3.1-0.9,3.1-2.1
					c0-1.4-1-2.1-4.5-3.2c-4.8-1.5-6.9-3.7-6.9-7.5c0-3.9,2.6-6.8,8.3-6.8c3.8,0,6.8,1.3,8.5,3.9L308.2,104.2z"/>
				<path class="st0" d="M328,104.2c-0.9-1.6-2.1-2.2-4.2-2.2c-1.9,0-2.7,0.9-2.7,2.1c0,1.4,1.2,2.2,4.2,3.1
					c5.2,1.5,7.1,3.4,7.1,7.4c0,4.3-2.9,7.1-8.3,7.1c-4.3,0-7.2-1.1-9.5-3.9l4.3-3c1.2,1.5,2.6,2.1,4.7,2.1c2.2,0,3.1-0.9,3.1-2.1
					c0-1.4-1-2.1-4.5-3.2c-4.8-1.5-6.9-3.7-6.9-7.5c0-3.9,2.6-6.8,8.3-6.8c3.8,0,6.8,1.3,8.5,3.9L328,104.2z"/>
				<polygon class="st0" points="134.3,145.7 129.8,145.7 125.3,125.8 130.5,125.8 132.7,137.7 136.2,125.8 140.4,125.8 144,137.8 
					146.1,125.8 151.3,125.8 146.9,145.7 142.4,145.7 138.3,132.8 				"/>
				<polygon class="st0" points="165.8,125.8 165.8,129.8 158,129.8 158,133.4 164.9,133.4 164.9,137.4 158,137.4 158,141.7 
					165.8,141.7 165.8,145.7 153.2,145.7 153.2,125.8 				"/>
				<polygon class="st0" points="180.8,125.8 180.8,129.8 173,129.8 173,133.4 179.9,133.4 179.9,137.4 173,137.4 173,141.7 
					180.8,141.7 180.8,145.7 168.2,145.7 168.2,125.8 				"/>
				<polygon class="st0" points="194,145.7 189.7,138.1 188,140.4 188,145.7 183.2,145.7 183.2,125.8 188,125.8 188,133.2 
					193.2,125.8 198.7,125.8 192.8,133.9 199.8,145.7 				"/>
				<polygon class="st0" points="251.2,97.6 251.2,102.3 241.9,102.3 241.9,106.7 250.2,106.7 250.2,111.4 241.9,111.4 241.9,116.5 
					251.2,116.5 251.2,121.3 236.2,121.3 236.2,97.6 				"/>
			</g>
		</g>
	</g>
	<path class="st1" d="M206.2,126.2c0-0.2,0.2-0.4,0.4-0.4h2.9c0.9,0,1.7,0.2,2.4,0.5c0.7,0.4,1.3,0.9,1.6,1.5
		c0.4,0.6,0.6,1.4,0.6,2.2c0,0.9-0.2,1.6-0.6,2.2c-0.4,0.6-0.9,1.1-1.6,1.5c-0.7,0.4-1.5,0.5-2.4,0.5h-2.9c-0.2,0-0.4-0.2-0.4-0.4
		V126.2z M209.5,132.8c1,0,1.5-0.2,2-0.7c0.5-0.5,0.8-1.1,0.8-1.9c0-0.8-0.3-1.5-0.8-1.9c-0.5-0.5-1-0.7-2-0.7h-1.1
		c-0.1,0-0.2,0.1-0.2,0.2v4.9c0,0.1,0.1,0.2,0.2,0.2H209.5z"/>
	<path class="st1" d="M220.3,128.5c0.5,0.5,0.8,1.2,0.8,2.2v3.2c0,0.3-0.2,0.6-0.5,0.6h-1.2v-0.8c-0.4,0.6-1,0.9-2,0.9
		c-0.5,0-0.9-0.1-1.3-0.3c-0.4-0.2-0.6-0.4-0.8-0.7c-0.2-0.3-0.3-0.6-0.3-1c0-0.6,0.2-1.1,0.7-1.4c0.5-0.3,1.2-0.5,2.1-0.5h1.5
		c0-0.4-0.1-0.7-0.4-1c-0.3-0.2-0.6-0.3-1.1-0.3c-0.3,0-0.7,0.1-1,0.2c-0.1,0-0.3,0.1-0.4,0.2c-0.3,0.1-0.6,0-0.7-0.2l-0.4-0.8
		c0.4-0.3,0.8-0.4,1.3-0.6c0.5-0.1,1-0.2,1.5-0.2C218.9,127.7,219.7,128,220.3,128.5 M218.7,133c0.3-0.2,0.4-0.4,0.5-0.7v-0.7h-1.3
		c-0.8,0-1.2,0.3-1.2,0.8c0,0.2,0.1,0.4,0.3,0.6c0.2,0.1,0.5,0.2,0.8,0.2C218.1,133.2,218.4,133.1,218.7,133"/>
	<path class="st1" d="M228.4,128.5c0.5,0.5,0.7,1.2,0.7,2.2v3.2c0,0.3-0.2,0.6-0.5,0.6h-1.3v-3.5c0-0.5-0.1-0.9-0.3-1.2
		c-0.2-0.3-0.6-0.4-1-0.4c-0.5,0-0.9,0.1-1.1,0.4c-0.3,0.3-0.4,0.7-0.4,1.3v2.7c0,0.3-0.2,0.6-0.5,0.6h-1.3v-6
		c0-0.3,0.2-0.6,0.5-0.6h1.3v0.8c0.3-0.3,0.6-0.5,0.9-0.6c0.4-0.2,0.8-0.2,1.2-0.2C227.3,127.7,227.9,128,228.4,128.5"/>
	<path class="st1" d="M235.6,128.5c0.5,0.5,0.8,1.2,0.8,2.2v3.2c0,0.3-0.2,0.6-0.5,0.6h-1.2v-0.8c-0.4,0.6-1,0.9-2,0.9
		c-0.5,0-0.9-0.1-1.3-0.3c-0.4-0.2-0.6-0.4-0.8-0.7c-0.2-0.3-0.3-0.6-0.3-1c0-0.6,0.2-1.1,0.7-1.4c0.5-0.3,1.2-0.5,2.1-0.5h1.5
		c0-0.4-0.1-0.7-0.4-1c-0.3-0.2-0.6-0.3-1.1-0.3c-0.3,0-0.7,0.1-1,0.2c-0.1,0-0.3,0.1-0.4,0.2c-0.3,0.1-0.6,0-0.7-0.2l-0.4-0.8
		c0.4-0.3,0.8-0.4,1.3-0.6c0.5-0.1,1-0.2,1.5-0.2C234.2,127.7,235,128,235.6,128.5 M233.9,133c0.3-0.2,0.4-0.4,0.5-0.7v-0.7h-1.3
		c-0.8,0-1.2,0.3-1.2,0.8c0,0.2,0.1,0.4,0.3,0.6c0.2,0.1,0.5,0.2,0.8,0.2C233.4,133.2,233.7,133.1,233.9,133"/>
	<polygon class="st1" points="245,125.9 245,126.6 240.7,126.6 240.7,129.9 244.6,129.9 244.6,130.5 240.7,130.5 240.7,134.4 
		240,134.4 240,125.9 	"/>
	<path class="st1" d="M248,134.4c-1.6,0-2.5-1-2.5-2.7v-0.9c0-1.7,0.9-2.7,2.5-2.7c1.6,0,2.5,0.9,2.5,2.7v0.9
		C250.4,133.4,249.6,134.4,248,134.4 M249.8,130.9c0-1.3-0.6-2.1-1.8-2.1c-1.2,0-1.8,0.7-1.8,2.1v0.9c0,1.3,0.6,2.1,1.8,2.1
		c1.2,0,1.8-0.8,1.8-2.1V130.9z"/>
	<path class="st1" d="M256.4,134.4h-0.7v-0.8c-0.3,0.6-0.9,0.9-1.8,0.9c-1.4,0-2.2-0.8-2.2-2.6v-3.6h0.7v3.6c0,1.4,0.7,1.9,1.6,1.9
		c1.2,0,1.7-0.8,1.7-1.9v-3.7h0.7V134.4z"/>
	<path class="st1" d="M258,128.2h0.7v0.8c0.3-0.6,0.9-0.9,1.8-0.9c1.4,0,2.2,0.8,2.2,2.6v3.6H262v-3.6c0-1.4-0.7-1.9-1.6-1.9
		c-1.1,0-1.7,0.8-1.7,1.9v3.7H258V128.2z"/>
	<path class="st1" d="M268.2,125.9h0.7v8.5h-0.7v-0.7c-0.3,0.6-0.9,0.8-1.8,0.8c-1.6,0-2.4-1-2.4-2.7v-0.9c0-1.7,0.9-2.7,2.4-2.7
		c0.9,0,1.5,0.3,1.8,0.9V125.9z M268.2,131.7v-0.9c0-1.3-0.5-2.1-1.8-2.1c-1.2,0-1.8,0.7-1.8,2.1v0.9c0,1.3,0.6,2.1,1.8,2.1
		C267.7,133.8,268.2,133,268.2,131.7"/>
	<path class="st1" d="M272.2,130.9h1.8v-0.8c0-1-0.4-1.3-1.5-1.3c-0.7,0-1.2,0-1.6,0.7l-0.5-0.4c0.4-0.7,1-1,2.1-1
		c1.5,0,2.2,0.5,2.2,2v4.2H274v-0.8c-0.3,0.6-0.9,0.8-1.7,0.8c-1.4,0-2.1-0.6-2.1-1.8C270.1,131.4,270.9,130.9,272.2,130.9
		 M274,131.5h-1.8c-1,0-1.4,0.5-1.4,1.1c0,0.9,0.6,1.2,1.4,1.2c1,0,1.7-0.3,1.7-1.7V131.5z"/>
	<path class="st1" d="M275.7,128.2h0.8v-1.3h0.7v1.3h1.5v0.6h-1.5v3.4c0,1,0.1,1.4,1.1,1.4h0.4v0.6h-0.4c-1.4,0-1.7-0.6-1.7-1.9
		v-3.6h-0.8V128.2z"/>
	<path class="st1" d="M279.9,125.9h0.8v0.8h-0.8V125.9z M280,128.2h0.7v6.1H280V128.2z"/>
	<path class="st1" d="M284.6,134.4c-1.6,0-2.5-1-2.5-2.7v-0.9c0-1.7,0.9-2.7,2.5-2.7c1.6,0,2.5,0.9,2.5,2.7v0.9
		C287.1,133.4,286.2,134.4,284.6,134.4 M286.4,130.9c0-1.3-0.6-2.1-1.8-2.1c-1.2,0-1.8,0.7-1.8,2.1v0.9c0,1.3,0.6,2.1,1.8,2.1
		c1.2,0,1.8-0.8,1.8-2.1V130.9z"/>
	<path class="st1" d="M288.4,128.2h0.7v0.8c0.3-0.6,0.9-0.9,1.8-0.9c1.4,0,2.2,0.8,2.2,2.6v3.6h-0.7v-3.6c0-1.4-0.7-1.9-1.6-1.9
		c-1.1,0-1.7,0.8-1.7,1.9v3.7h-0.7V128.2z"/>
	<g>
		<path class="st2" d="M162.8,87.6"/>
		<g id="XMLID_42_">
			<g id="XMLID_43_">
				<g id="XMLID_44_">
					
						<radialGradient id="XMLID_2_" cx="-298.5932" cy="-847.4054" r="67.9062" gradientTransform="matrix(-0.9693 0.2458 0.2458 0.9693 15.6995 969.7294)" gradientUnits="userSpaceOnUse">
						<stop  offset="0" style="stop-color:#29ABE2"/>
						<stop  offset="1.215035e-02" style="stop-color:#28A7E1"/>
						<stop  offset="0.104" style="stop-color:#2489DB"/>
						<stop  offset="0.2064" style="stop-color:#2071D5"/>
						<stop  offset="0.322" style="stop-color:#1D5FD1"/>
						<stop  offset="0.4583" style="stop-color:#1B52CE"/>
						<stop  offset="0.6351" style="stop-color:#194ACC"/>
						<stop  offset="1" style="stop-color:#1948CC"/>
					</radialGradient>
					<path id="XMLID_50_" class="st3" d="M96.9,68.5c-0.2,0.8-0.8,1.4-1.6,1.6c-0.1,0-0.1,0-0.2,0c-0.9,0.1-1.8-0.3-2.2-1l-20-32.4
						c-0.3-0.6-0.4-1.2-0.2-1.8c0.2-0.6,0.7-1.1,1.3-1.4c1.6-0.7,3.3-1.2,4.9-1.6c8.7-2.2,16.8-0.9,20.9,0.1L100,32
						c0.1,0,0.2,0,0.2,0.1l0.3,0.1c0.4,0.1,0.8,0.2,1.1,0.3l1.5,0.4c1.1,0.3,1.8,1.5,1.5,2.6L96.9,68.5z"/>
					
						<radialGradient id="XMLID_3_" cx="-298.593" cy="-847.4048" r="67.9068" gradientTransform="matrix(-0.9693 0.2458 0.2458 0.9693 15.6995 969.7294)" gradientUnits="userSpaceOnUse">
						<stop  offset="0" style="stop-color:#29ABE2"/>
						<stop  offset="1.215035e-02" style="stop-color:#28A7E1"/>
						<stop  offset="0.104" style="stop-color:#2489DB"/>
						<stop  offset="0.2064" style="stop-color:#2071D5"/>
						<stop  offset="0.322" style="stop-color:#1D5FD1"/>
						<stop  offset="0.4583" style="stop-color:#1B52CE"/>
						<stop  offset="0.6351" style="stop-color:#194ACC"/>
						<stop  offset="1" style="stop-color:#1948CC"/>
					</radialGradient>
					<path id="XMLID_49_" class="st4" d="M89.3,69.3c-0.3,0.3-0.7,0.5-1.1,0.6c-0.5,0.1-1.1,0.1-1.6-0.2L52.4,51.4
						c-0.7-0.4-1.1-1.1-1.2-1.8c0-0.8,0.3-1.5,1-1.9c3.7-2.5,6.9-4,8.1-4.5l0.3-0.1l0.2-0.2c2.2-2.5,4.7-4.6,7.4-6.3
						c0.2-0.1,0.4-0.2,0.7-0.3c0.3-0.1,0.7-0.1,1,0c0.6,0.1,1.1,0.5,1.4,1l18.2,29.5C90.1,67.5,90,68.6,89.3,69.3z"/>
					
						<radialGradient id="XMLID_4_" cx="-298.5923" cy="-847.4059" r="67.9065" gradientTransform="matrix(-0.9693 0.2458 0.2458 0.9693 15.6995 969.7294)" gradientUnits="userSpaceOnUse">
						<stop  offset="0" style="stop-color:#29ABE2"/>
						<stop  offset="1.215035e-02" style="stop-color:#28A7E1"/>
						<stop  offset="0.104" style="stop-color:#2489DB"/>
						<stop  offset="0.2064" style="stop-color:#2071D5"/>
						<stop  offset="0.322" style="stop-color:#1D5FD1"/>
						<stop  offset="0.4583" style="stop-color:#1B52CE"/>
						<stop  offset="0.6351" style="stop-color:#194ACC"/>
						<stop  offset="1" style="stop-color:#1948CC"/>
					</radialGradient>
					<path id="XMLID_48_" class="st5" d="M31.3,91.3c-2-11.3,2.9-17.5,5-19.7l0.4-0.4l0.1-0.5c0.9-7.1,4.3-13.5,10.2-18.9
						c0.3-0.3,0.6-0.4,1-0.5c0.5-0.1,1.1-0.1,1.6,0.2L93.4,75c0.6,0.3,1,0.9,1.1,1.6c0.1,0.7-0.1,1.3-0.5,1.9l-35.6,40.9
						c-0.3,0.3-0.7,0.6-1.1,0.7c-0.4,0.1-0.8,0.1-1.2,0c-1.8-0.5-3.4-1.3-4.8-2.2c-4.5-3.1-6.2-7.6-6.7-10l-0.2-0.8l-0.8-0.3
						C39.8,105.4,33.2,101.8,31.3,91.3z"/>
					
						<radialGradient id="XMLID_5_" cx="-298.5927" cy="-847.4056" r="67.9071" gradientTransform="matrix(-0.9693 0.2458 0.2458 0.9693 15.6995 969.7294)" gradientUnits="userSpaceOnUse">
						<stop  offset="0" style="stop-color:#29ABE2"/>
						<stop  offset="1.215035e-02" style="stop-color:#28A7E1"/>
						<stop  offset="0.104" style="stop-color:#2489DB"/>
						<stop  offset="0.2064" style="stop-color:#2071D5"/>
						<stop  offset="0.322" style="stop-color:#1D5FD1"/>
						<stop  offset="0.4583" style="stop-color:#1B52CE"/>
						<stop  offset="0.6351" style="stop-color:#194ACC"/>
						<stop  offset="1" style="stop-color:#1948CC"/>
					</radialGradient>
					<path id="XMLID_47_" class="st6" d="M62.1,117.2l32.4-37.2c0.3-0.3,0.7-0.6,1.1-0.7c0.2-0.1,0.5-0.1,0.7-0.1
						c0.7,0.1,1.3,0.4,1.7,1l16.3,26.4c0.4,0.6,0.4,1.4,0.1,2.1c-0.3,0.6-0.8,1-1.5,1.2c-0.1,0-0.1,0-0.2,0
						c-3.1,0.5-6.4,0.4-9.8-0.2l-1.5-0.3l-0.2,1.5c-0.9,6.3-3.9,10.6-8.6,12.7c-4.3,1.8-6,5.2-8.1,9.5c-1.6,3.2-3.2,6.4-6.1,9.7
						c-1.3,1.4-2.5,2.3-3.6,2.6c-0.7,0.2-1.3,0.1-2-0.2c-3.4-1.5-3.7-9.5-2.9-15.9c0.3-2.8-0.4-5.8-1.1-7.8l-0.4-1.1l-1.2,0.1
						c-1.1,0.1-2.2,0.2-3.5,0.2c-0.9,0-1.7-0.5-2.1-1.3C61.4,118.8,61.5,117.9,62.1,117.2z"/>
					
						<radialGradient id="XMLID_6_" cx="-298.5923" cy="-847.4056" r="67.9072" gradientTransform="matrix(-0.9693 0.2458 0.2458 0.9693 15.6995 969.7294)" gradientUnits="userSpaceOnUse">
						<stop  offset="0" style="stop-color:#29ABE2"/>
						<stop  offset="1.215035e-02" style="stop-color:#28A7E1"/>
						<stop  offset="0.104" style="stop-color:#2489DB"/>
						<stop  offset="0.2064" style="stop-color:#2071D5"/>
						<stop  offset="0.322" style="stop-color:#1D5FD1"/>
						<stop  offset="0.4583" style="stop-color:#1B52CE"/>
						<stop  offset="0.6351" style="stop-color:#194ACC"/>
						<stop  offset="1" style="stop-color:#1948CC"/>
					</radialGradient>
					<path id="XMLID_46_" class="st7" d="M155.3,55l-54.7,18.9c-0.1,0-0.1,0-0.2,0.1c-0.7,0.2-1.5,0-2-0.5c-0.6-0.5-0.9-1.4-0.7-2.2
						l9.3-39.2c0.2-0.8,0.8-1.4,1.6-1.6c0.1,0,0.2,0,0.3-0.1c4.8-0.5,10.4,1.3,14.9,4.7l0.4,0.3l0.5,0c2.8-0.1,10.3-0.1,18,2.9
						c7.7,3,12.2,10.5,13.8,13.6c0.3,0.6,0.3,1.2,0.1,1.8C156.4,54.4,155.9,54.8,155.3,55z"/>
					
						<radialGradient id="XMLID_7_" cx="-298.5922" cy="-847.4059" r="67.9069" gradientTransform="matrix(-0.9693 0.2458 0.2458 0.9693 15.6995 969.7294)" gradientUnits="userSpaceOnUse">
						<stop  offset="0" style="stop-color:#29ABE2"/>
						<stop  offset="1.215035e-02" style="stop-color:#28A7E1"/>
						<stop  offset="0.104" style="stop-color:#2489DB"/>
						<stop  offset="0.2064" style="stop-color:#2071D5"/>
						<stop  offset="0.322" style="stop-color:#1D5FD1"/>
						<stop  offset="0.4583" style="stop-color:#1B52CE"/>
						<stop  offset="0.6351" style="stop-color:#194ACC"/>
						<stop  offset="1" style="stop-color:#1948CC"/>
					</radialGradient>
					<path id="XMLID_45_" class="st8" d="M98.7,77c0.2-0.6,0.7-1.1,1.4-1.3l57.4-19.8c0.1,0,0.1,0,0.2-0.1c0.9-0.2,1.8,0.1,2.4,0.9
						c3.1,4.5,4.8,9.8,4.7,14.9c-0.1,5.7-2.5,10.9-6.9,15c-4,3.7-8.8,6.3-14.3,7.7c-3.7,0.9-6.9,1.1-8.9,1.1l-0.8,0l-0.4,0.7
						c-1.9,3-6.3,8.5-13.9,12.1c-0.1,0-0.2,0.1-0.3,0.1c-0.1,0.1-0.2,0.1-0.4,0.1c-0.9,0.2-1.9-0.1-2.4-1L98.9,78.9
						C98.5,78.3,98.4,77.6,98.7,77z"/>
				</g>
			</g>
		</g>
		<g>
			<path class="st9" d="M104.6,73.1"/>
		</g>
		<g id="XMLID_41_">
			<g>
				<path class="st9" d="M133.1,62.9c0.6,2.2,2.8,3.5,5,3c2.2-0.6,3.5-2.8,3-5c-0.6-2.2-2.8-3.5-5-3
					C133.9,58.5,132.6,60.8,133.1,62.9z"/>
			</g>
			<path class="st0" d="M158.5,54.4c-0.6-0.8-1.2-1.5-1.8-2.1c0,0,0.1,1.9-1.2,2.3c-0.1,0-5.8,2-13.3,4.6c-0.5-0.9-1.2-1.7-2.1-2.2
				c-1.3-0.8-2.9-1-4.3-0.6c-1.3,0.3-2.3,1.1-3.1,2.1l-23.9-9.2l-0.7,1.8l23.6,9.1c-0.3,0.9-0.3,1.8-0.2,2.7
				c-13.3,4.6-27.2,9.3-27.2,9.3l0.6,1.7c0,0,13.7-4.7,27.2-9.3c0.5,0.9,1.2,1.7,2.1,2.2c0.9,0.5,1.9,0.8,2.9,0.8
				c0.5,0,0.9-0.1,1.4-0.2c1.5-0.4,2.7-1.3,3.5-2.6c0.7-1.2,0.9-2.5,0.7-3.9c8.2-2.8,14.6-5,14.9-5.1c1.1-0.4,2.2,0.6,2.2,0.6
				C159.4,55.8,159,55.2,158.5,54.4z M139.2,63.2c-0.3,0.6-0.9,1-1.5,1.1c-0.6,0.2-1.3,0.1-1.8-0.3c-0.6-0.3-1-0.9-1.1-1.5
				c-0.2-0.6-0.1-1.3,0.3-1.9c0.3-0.6,0.9-1,1.5-1.1c0.2-0.1,0.4-0.1,0.6-0.1c0.4,0,0.9,0.1,1.2,0.3c0.6,0.3,1,0.9,1.1,1.5
				C139.6,62,139.5,62.6,139.2,63.2z"/>
		</g>
		<g id="XMLID_40_">
			<path class="st9" d="M96.5,49c0.8,3.3,4.1,5.2,7.4,4.4c3.3-0.8,5.2-4.1,4.4-7.4c-0.8-3.3-4.1-5.2-7.4-4.4
				C97.6,42.4,95.6,45.7,96.5,49z"/>
			<path class="st10" d="M109.6,45.7c-0.5-1.9-1.7-3.5-3.4-4.6c-0.4-0.2-0.8-0.4-1.2-0.6c1.1-4.6,1.9-8,1.9-8.2
				c0.2-0.9,1.7-1.8,1.7-1.8c-1,0-1.8-0.1-2.8,0.1c-1,0.2-1.8,0.5-2.6,2.4c0,0,1.6,0.6,1.3,2c0,0.1-0.5,2.2-1.2,5.2
				c-0.9-0.1-1.8-0.1-2.7,0.2C98.6,40.8,97,42,96,43.7c-1,1.7-1.3,3.7-0.8,5.6c0.5,1.9,1.7,3.5,3.4,4.6c0.4,0.2,0.8,0.4,1.3,0.6
				c-1.6,6.9-3.1,13-3.1,13l1.8,0.4c0,0,1.4-6,3.1-13c0.2,0,0.5,0,0.7,0c0.6,0,1.2-0.1,1.8-0.2C108.2,53.7,110.6,49.6,109.6,45.7z
				 M103.5,52.1c-1.2,0.3-2.5,0.1-3.6-0.5c-1.1-0.7-1.9-1.7-2.2-2.9c-0.3-1.2-0.1-2.5,0.5-3.6c0.7-1.1,1.7-1.9,2.9-2.2
				c0.4-0.1,0.8-0.1,1.2-0.1c0.9,0,1.7,0.2,2.4,0.7c1.1,0.7,1.9,1.7,2.2,2.9C107.7,48.9,106.1,51.5,103.5,52.1z"/>
		</g>
		<g id="XMLID_39_">
			<path class="st9" d="M107,99.4c0.4,1.7,2.2,2.8,3.9,2.3c1.7-0.4,2.8-2.2,2.3-3.9c-0.4-1.7-2.2-2.8-3.9-2.3
				C107.7,95.9,106.6,97.6,107,99.4z"/>
			<path class="st10" d="M115.7,106.1c-0.1-0.1-1.1-1.8-2.5-4.2c0.3-0.3,0.6-0.6,0.9-1c0.6-1,0.8-2.3,0.5-3.4
				c-0.6-2.4-3.1-3.9-5.5-3.3c-0.1,0-0.3,0.1-0.4,0.2c-3.6-5.9-7.1-11.8-7.1-11.8l-1.6,1c0,0,3.6,5.9,7.2,11.8
				c-1.2,1.1-1.8,2.8-1.3,4.4c0.5,2.1,2.4,3.4,4.4,3.4c0.4,0,0.7,0,1.1-0.1c0.1,0,0.3-0.1,0.4-0.1c1.6,2.6,2.7,4.5,2.8,4.8
				c0.6,1.1-1.6,2.5-1.6,2.5c0.9-0.2,2.3-0.3,3.2-0.5c0.9-0.2,2.2-0.6,2.7-1.2C118.8,108.3,117.4,108.7,115.7,106.1z M108.3,99
				c-0.3-1,0.4-2.1,1.4-2.3c1-0.3,2.1,0.4,2.3,1.4c0.1,0.5,0.1,1-0.2,1.4s-0.7,0.7-1.2,0.9C109.6,100.7,108.6,100.1,108.3,99z"/>
		</g>
		<g>
			<g>
				<g>
					<path class="st10" d="M91.1,66.1l-1.5,1c0,0-17.6-29-17.8-29.4c-1.5-2.2-3.1-1.5-3.1-1.5c0.5-0.7,1.7-1.8,2.5-2.1
						c1.1-0.4,1.9-0.6,2.7-0.6c0,0-1.6,1.6-1,2.7C73.4,37,91.1,66.1,91.1,66.1z"/>
				</g>
			</g>
		</g>
		<path class="st9" d="M63,109.9c0.8,3.3,4.1,5.2,7.4,4.4c3.3-0.8,5.2-4.1,4.4-7.4c-0.8-3.3-4.1-5.2-7.4-4.4
			C64.1,103.3,62.2,106.6,63,109.9z"/>
		<g>
			<g>
				<g>
					<path class="st11" d="M94.1,83.4l1.8-0.6c0,0-2.7,35.4-2.7,35.8c-0.2,3.9,2.7,3.2,2.7,3.2c-1.2,1.5-2.2,2.2-3,2.6
						c-1.2,0.6-2.4,1-3.1,1.1c0,0,1.2-1,1.4-2.6C91.2,122,94.1,83.4,94.1,83.4z"/>
				</g>
			</g>
		</g>
		<g id="XMLID_38_">
			<g>
				<path class="st9" d="M71.7,66c0.4,1.7,2.2,2.8,3.9,2.3c1.7-0.4,2.8-2.2,2.3-3.9c-0.4-1.7-2.2-2.8-3.9-2.3
					C72.3,62.5,71.2,64.3,71.7,66z"/>
			</g>
			<path class="st10" d="M88.5,70.4c0,0-3.9-2.1-9.2-4.9c0-0.5,0-0.9-0.1-1.4c-0.6-2.4-3.1-3.9-5.5-3.3c-0.6,0.2-1.2,0.4-1.7,0.8
				c-9.4-5-19.4-10.4-19.8-10.6c-1.6-0.9,0-3.4,0-3.4c-0.7,0.4-2.4,0.8-3.5,1.6c-0.7,0.6-2.1,2.1-2.2,3c0,0,1.4-1.3,3.8-0.1
				c0.2,0.1,10.7,5.7,20.5,11c0,0.1-0.1,0.1-0.1,0.2c-6.8-0.3-27.8-1-28.6-1.1c-1.7-0.1-1.4-2.8-1.4-2.8C40.3,60,39,61,38.5,62.1
				c-0.3,0.8-0.8,2.6-0.7,4c0,0,0.8-2.3,3.3-2.3c0.3,0,22.9,0.8,29.2,1.1c0,0.5,0,1,0.1,1.4c0.5,2.1,2.4,3.4,4.4,3.4
				c0.4,0,0.7,0,1.1-0.1c1.3-0.3,2.3-1.2,2.9-2.3c5.1,2.7,8.9,4.7,8.9,4.7L88.5,70.4z M75.3,67c-1,0.3-2.1-0.4-2.3-1.4
				c-0.3-1,0.4-2.1,1.4-2.3c0.2,0,0.3-0.1,0.5-0.1c0.9,0,1.6,0.6,1.9,1.4C76.9,65.7,76.3,66.8,75.3,67z"/>
		</g>
		<g id="XMLID_37_">
			<path class="st9" d="M55.4,91.2c0.6,2.2,2.8,3.5,5,3c2.2-0.6,3.5-2.8,3-5c-0.6-2.2-2.8-3.5-5-3C56.2,86.8,54.9,89,55.4,91.2z"/>
			<path class="st11" d="M74.4,103.4c9.4-10.9,21.1-24.5,21.1-24.5l-1.4-1.2c0,0-11.3,13.1-21.1,24.6c-1.7-1.1-3.8-1.6-6-1
				c-0.3,0.1-0.6,0.2-0.9,0.3l-3.8-6.8c0.6-0.4,1.2-1,1.6-1.7c0.7-1.1,0.9-2.4,0.7-3.7l23.6-9.6l-0.7-1.8L64,87.4
				c-0.5-0.8-1.1-1.4-1.8-1.9c-1.2-0.7-2.7-1-4.1-0.6c-1.4,0.4-2.6,1.2-3.3,2.5c-0.2,0.3-0.3,0.6-0.4,0.9c-5.8-0.8-20.2-2.9-20.9-3
				c-1.3-0.2-2.5-1.4-2.5-1.4c-0.3,0.7-0.4,1-0.5,2.2c-0.1,0.7,0,2.4,0.6,3.2c0,0-0.3-2.9,2.9-2.4c0.3,0,14.3,2.1,20.1,2.9
				c0,0.6,0,1.1,0.1,1.7c0.4,1.4,1.2,2.6,2.5,3.3c0.8,0.5,1.8,0.8,2.8,0.8c0.4,0,0.8-0.1,1.2-0.1l3.9,7c-0.8,0.6-1.4,1.3-1.9,2.2
				c-1,1.7-1.3,3.7-0.8,5.6c0.3,1.2,0.9,2.3,1.7,3.2c-2.8,3.2-4.6,5.3-4.7,5.5c-1,1.1-2.6,1-2.6,1c0.6,0.4,1.6,0.9,3,1.1
				c0.8,0.1,2.4,0.2,4.2-0.3c0,0-2.8-1.2-0.3-4.2c0,0,0.7-0.8,1.8-2.1c1.2,0.8,2.6,1.3,4.1,1.3c0.6,0,1.2-0.1,1.8-0.2
				c1.9-0.5,3.5-1.7,4.6-3.4c1-1.7,1.3-3.7,0.8-5.6C75.8,105.4,75.2,104.3,74.4,103.4z M61.8,91.6c-0.4,0.6-1,1.1-1.7,1.3
				c-0.7,0.2-1.5,0.1-2.1-0.3s-1.1-1-1.3-1.7c-0.2-0.7-0.1-1.5,0.3-2.1c0.4-0.6,1-1.1,1.7-1.3c0.2-0.1,0.5-0.1,0.7-0.1
				c0.5,0,1,0.1,1.4,0.4c0.6,0.4,1.1,1,1.3,1.7S62.1,91,61.8,91.6z M73,110.9c-0.7,1.1-1.7,1.9-2.9,2.2c-2.6,0.6-5.2-0.9-5.8-3.5
				c-0.3-1.2-0.1-2.5,0.5-3.6c0.7-1.1,1.7-1.9,2.9-2.2c0.4-0.1,0.8-0.1,1.2-0.1c2.1,0,4.1,1.4,4.6,3.6
				C73.9,108.5,73.7,109.8,73,110.9z"/>
		</g>
		<g id="XMLID_36_">
			<path class="st9" d="M136.6,84.4c0.6,2.2,2.8,3.5,5,3c2.2-0.6,3.5-2.8,3-5c-0.6-2.2-2.8-3.5-5-3C137.4,80,136,82.2,136.6,84.4z"
				/>
			<path class="st0" d="M155.4,85.2c-0.3,0-4-0.6-9.4-1.5c0-0.5,0-1.1-0.1-1.6c-0.4-1.4-1.2-2.6-2.5-3.3c-1.2-0.7-2.7-0.9-4.1-0.6
				c-1.4,0.4-2.6,1.2-3.3,2.5c-0.2,0.4-0.4,0.9-0.5,1.3c-14.5-2.4-31.5-5.1-31.5-5.1l-0.3,1.8c0,0,17.5,2.8,31.6,5.1
				c0,0.3,0.1,0.7,0.2,1c0.6,2.4,2.8,4.1,5.2,4.1c0.4,0,0.9-0.1,1.3-0.2c1.4-0.4,2.6-1.2,3.3-2.5c0.1-0.2,0.2-0.5,0.3-0.7
				c4.4,0.7,7.3,1.2,7.4,1.2c1.8,0.4,2,2.2,2,2.2c0.6-0.2,1.6-0.9,2.4-1.6c0.8-0.6,1.4-1.6,2-2.4C159.4,84.8,157.1,85.4,155.4,85.2z
				 M142.9,84.8c-0.4,0.6-1,1.1-1.7,1.3c-1.5,0.4-3-0.5-3.4-2c-0.2-0.7-0.1-1.5,0.3-2.1c0.4-0.6,1-1.1,1.7-1.3
				c0.7-0.2,1.5-0.1,2.1,0.3c0.6,0.4,1.1,1,1.3,1.7S143.3,84.2,142.9,84.8z"/>
		</g>
		<g id="XMLID_10_">
			<g>
				<path class="st9" d="M87.1,76.9c1.2,4.8,6,7.6,10.8,6.4c4.8-1.2,7.6-6,6.4-10.8c-1.2-4.8-6-7.6-10.8-6.4
					C88.8,67.3,85.9,72.1,87.1,76.9z"/>
			</g>
			<g>
				<path class="st0" d="M95.7,85.5c-1.9,0-3.8-0.5-5.5-1.5c-2.5-1.5-4.3-3.8-5-6.7l0,0c-0.7-2.8-0.3-5.7,1.2-8.2s3.8-4.3,6.7-5
					c2.8-0.7,5.7-0.3,8.2,1.2c2.5,1.5,4.3,3.8,5,6.7c0.7,2.8,0.3,5.7-1.2,8.2s-3.8,4.3-6.7,5C97.5,85.4,96.6,85.5,95.7,85.5z
					 M95.8,67.8c-0.6,0-1.1,0.1-1.7,0.2c-1.8,0.5-3.3,1.6-4.2,3.2c-0.9,1.6-1.2,3.4-0.8,5.2l0,0c0.5,1.8,1.6,3.3,3.2,4.2
					c1.6,0.9,3.4,1.2,5.2,0.8c1.8-0.5,3.3-1.6,4.2-3.2c0.9-1.6,1.2-3.4,0.8-5.2c-0.5-1.8-1.6-3.3-3.2-4.2
					C98.2,68.1,97,67.8,95.8,67.8z"/>
			</g>
		</g>
	</g>
</g>
</svg>
